<?xml version="1.0" encoding="UTF-8"?>
<svg id="Layer_1" data-name="Layer 1" xmlns="http://www.w3.org/2000/svg" viewBox="0 0 51.74 50.72">
  <defs>
    <style>
      .cls-1 {
        fill: #d9363b;
      }

      .cls-2 {
        fill: #2f744f;
      }
    </style>
  </defs>
  <path d="M33.29,39.2c.1-.03.11.02.17.07.26.19.78,1.36.99,1.71.59,1,1.22,1.98,1.85,2.96l.76-2.93-1.88-2.95c1.92-.25,2.45,1.4,3.29,2.71-.49,2.06-1.09,4.12-1.83,6.09-.52-.73-1-1.48-1.48-2.24-.41-.64-2.13-3.23-2.2-3.76-.08-.6.1-1.11.33-1.65Z"/>
  <path class="cls-2" d="M16.5,38.04l-1.83,2.88.78,2.87.1.03,2.74-4.63c.09-.04.24.28.26.35.47,1.1.06,1.65-.47,2.56-.94,1.61-1.99,3.2-3.04,4.74l-1.78-6.11c.86-1.29,1.29-2.96,3.23-2.68Z"/>
  <path d="M32.12,34.61c.33-.06.52.1.72.33l3.36,5.45c.06.61-.89,1.07-1.29.6l-3.44-5.57c-.06-.36.32-.75.65-.81Z"/>
  <path class="cls-2" d="M19.26,34.61c.29-.06.57.08.76.29.26.29.23.42.08.76-.77,1.72-2.38,3.44-3.23,5.16-.6.68-1.58.09-1.08-.94.82-1.68,2.24-3.32,3.12-5,.08-.11.21-.23.35-.26Z"/>
  <path class="cls-1" d="M34.31,9.75c1.25-.37,2.38,1.02,2.23,2.19-.08.6-1.02,2.83-1.32,3.49-.33.73-.7,1.15-1.51,1.34-.12.03-.81.18-.73-.05.37-.66.76-1.3,1.06-1.99.23-.52,1.09-2.56,1.14-3,.05-.5-.79-1.43-.88-1.99Z"/>
  <path class="cls-1" d="M17.52,9.75c-.18.61-.94,1.43-.88,2.06.04.36.8,2.21,1,2.66.35.8.84,1.53,1.2,2.32l-.07.14c-.81-.16-1.55-.37-1.99-1.13-.29-.51-1.37-3.38-1.43-3.92-.13-1.21.86-2.51,2.16-2.12Z"/>
  <path d="M27.43,28.23s.11.06.2.07c.25.02,1.01.02,1.17.15l2.4,3.86c.23.61-.58,1.19-1.12.85-.08-.05-.23-.28-.3-.38-.76-1.05-1.37-2.36-2.11-3.44-.92-.2-.68-.12-.75.6,0,.08-.03.37-.13.38l-.47-2.1c.37.02.75-.02,1.12,0Z"/>
  <path class="cls-1" d="M29.03,24.17l3.65-6.77c.41.78.7,1.25.42,2.15-.2.66-1.88,3.72-2.35,4.15s-1.1.5-1.73.47Z"/>
  <path class="cls-1" d="M30.85,16.32l-.49.97c-.77,1.06-1.47,2.32-2.05,3.5-.36.72-.62,1.47-.97,2.19-.22.29-.62-.74-.65-.9-.05-.25-.05-.52-.01-.77.08-.49,1.53-3.27,1.87-3.82.55-.9,1.26-1.19,2.31-1.17Z"/>
  <path class="cls-1" d="M22.32,5.82c0-.71.47-1.46,1.15-1.73s3.21-.24,4.03-.17c.77.06,1.45.5,1.78,1.2.06.13.33.72.07.68-.53-.09-1.22-.46-1.72-.52-.74-.09-2.56-.07-3.32,0-.63.06-1.36.42-1.99.54Z"/>
  <path class="cls-1" d="M31.1,19.48c-.49.39-1.33-.25-1.08-.85l2.44-4.73c.38-.51,1.2-.2,1.3.37.04.24-.62,1.52-.77,1.84-.44.88-1,2-1.5,2.83-.07.11-.3.49-.37.54Z"/>
  <path d="M28.42,31.34c.1-.03.11.02.17.07.25.18.98,1.76,1.22,2.16.81,1.37,1.87,2.66,2.64,3.99.04.08.15.09.03.18-.86.09-1.65-.09-2.17-.81-.41-.57-2.12-3.31-2.25-3.84-.16-.64.13-1.18.36-1.75Z"/>
  <path class="cls-1" d="M24.63,23.02l-3.59-6.7c1.24.02,1.78.42,2.38,1.44.44.74.92,1.65,1.31,2.41.42.82.8,1.34.38,2.28-.05.11-.36.66-.49.56Z"/>
  <path class="cls-1" d="M19.28,17.47c.81,1.69,1.62,3.41,2.61,5,.1.17,1.14,1.54,1.04,1.63-1.11.08-1.75-.24-2.32-1.16-.35-.56-1.85-3.21-1.92-3.7-.04-.26-.03-.58.01-.83.03-.14.38-1.09.58-.94Z"/>
  <path d="M30.18,30.12h.98c.35,0,.99.47,1.21.75.47.58,1.94,2.96,2.2,3.62.27.72.14,1.41-.36,1.99-.78-1.17-1.41-2.46-2.17-3.65-.59-.92-1.29-1.77-1.86-2.71Z"/>
  <path class="cls-1" d="M21.63,19.41c-.39.32-.91.09-1.15-.27-.87-1.32-1.47-3.08-2.32-4.45-.29-.62.34-1.33.98-.98.41.23.87,1.46,1.12,1.93.54,1.02,1.1,2.02,1.63,3.04.1.16-.15.64-.26.73Z"/>
  <path class="cls-2" d="M19.21,37.77l4.03-6.5c.65.95.55,1.7.02,2.66-.37.67-1.66,2.84-2.12,3.3-.51.49-1.25.59-1.93.54Z"/>
  <path class="cls-2" d="M20.89,30.08c.2-.02.47-.09.62.08-.36.64-.87,1.17-1.27,1.77-.62.92-1.3,2-1.85,2.95-.26.46-.4.91-.72,1.38-.23.34-.31-.02-.43-.27-.2-.42-.25-.82-.18-1.28.07-.43,1.8-3.15,2.16-3.66.46-.64.86-.9,1.67-.97Z"/>
  <path class="cls-2" d="M24.15,27.89c-.03.45.19.96,0,1.39l-2.4,3.73c-.32.18-.54.28-.88.08-.6-.36-.34-.8-.07-1.27.69-1.22,1.59-2.35,2.28-3.57l1.06-.36Z"/>
  <path class="cls-1" d="M34.11,9.4c-.27-.96-.8-1.42-1.53-2.02-.26-.21-.73-.62-.99-.77-.53-.33-1.27-.4-1.82-.68.55-.64,1.3-.95,2.11-.63.45.18,2.36,1.74,2.66,2.15.52.69.85,2.08-.43,1.96Z"/>
  <path class="cls-1" d="M21.98,5.96c-.44.19-.93.26-1.37.42-.54.2-2.29,1.69-2.57,2.17-.07.13-.36.89-.4.92-1.24-.05-.86-1.38-.32-2.05.35-.43,2.22-2.03,2.69-2.18.79-.24,1.5.05,1.96.71Z"/>
  <path class="cls-1" d="M25.64,25.72c-.06.06-1.62-.21-1.72-.48l-1.83-3.31c-.22-.71.7-1.29,1.22-.67.61,1.07,1.25,2.13,1.88,3.2.07.13.2.2.27.34s.26.85.19.93Z"/>
  <path class="cls-1" d="M29.03,7.85c-.1.51-.76.9-1.25.95-.84.08-3.12.1-3.92,0-.53-.07-.79-.42-1.05-.84.35-.12.71-.33,1.07-.42.68-.17,2.95-.16,3.7-.09.5.05.96.34,1.46.41Z"/>
  <path class="cls-1" d="M24.13,5.64c.42-.05.83.06.94.52.21.94-1.12,1.01-1.72,1.2-.65.21-1.89.77-2.5.82-.89.07-1.14-1.06-.29-1.44.57-.25,2.99-1.04,3.56-1.11Z"/>
  <path class="cls-1" d="M27.25,5.56c.14-.03.23,0,.36.02.64.11,3,.93,3.58,1.23.91.47.53,1.32-.36,1.38-.69-.28-1.4-.51-2.1-.74-.45-.15-1.68-.36-1.92-.72-.28-.43-.03-1.06.45-1.16Z"/>
  <path class="cls-1" d="M26.72,25.72l-.04-1.02,1.9-3.45c.43-.58,1.43-.03,1.29.61l-1.8,3.35c-.28.36-.93.41-1.35.51Z"/>
  <path class="cls-1" d="M32.46,8.14c.37-.08.61.1.82.37.34.44,1.12,2.16,1.33,2.73.15.4.26.59-.06.95s-.75.38-1.07-.02c-.25-.3-1.32-2.52-1.46-2.94s-.07-.98.44-1.09Z"/>
  <path class="cls-1" d="M17.34,12.3c-.6-.54-.08-1.23.19-1.83.23-.5.67-1.58.94-1.97.49-.72,1.33-.29,1.39.44l-1.34,2.92c-.21.46-.72.85-1.18.43Z"/>
  <path class="cls-1" d="M32.47,10.97c.11.28.38.53.3.86-.12.53-.71,1.59-.95,2.17-.14.35-.21.72-.35,1.07-.08.19-.37.9-.58.83-.27-.28-.53-.8-.58-1.19-.1-.88.99-2.56,1.18-3.48.17-.22.7-.17.97-.26Z"/>
  <path class="cls-1" d="M19.23,11.12c.13-.12.78,0,.92.09.33.19.95,2.44,1.24,2.89.18.71-.02,1.33-.46,1.88-.14.04-.39-.51-.45-.63-.52-1.1-.9-2.4-1.43-3.51-.1-.18.04-.59.18-.71Z"/>
  <path class="cls-1" d="M22.59,8.06c.32.85-.38,1.37-.94,1.86-.22.19-.85.72-1.08.81-.42.16-.67.01-1.08-.03-.08-.09.25-.74.33-.86.21-.31,1.5-1.36,1.85-1.54.14-.07.84-.32.94-.24Z"/>
  <path class="cls-1" d="M30.69,8.69c.68.5,1.37,1.06,1.56,1.94-.34.17-.87.23-1.22.06-.27-.13-1.25-1.05-1.46-1.31-.31-.38-.55-.86-.34-1.36.57.02,1.03.36,1.46.68Z"/>
  <path d="M26.11,30.94l.14,2.4c.01.24-.5.22-.58.11l-.17-2.4.61-.11Z"/>
  <path d="M31.12,27.62l-.17.54c-.03.05-.08.06-.14.07-.48.09-1.58-.36-2.13-.34l.14-.61,2.3.34Z"/>
  <path class="cls-2" d="M19.59,25.26c.15-.05,1.89.46,2.06.57.08.06-.02.59-.29.56-.16-.01-1.8-.5-1.88-.56-.13-.11-.03-.52.11-.57Z"/>
  <path class="cls-2" d="M20.16,28.77l-.19-.51,1.98-.97s.05.04.08.06c.08.07.25.43.1.51l-1.96.91Z"/>
  <path d="M30.78,24.92l.25.54c-.07.11-1.62.88-1.77.88-.13,0-.24-.25-.3-.37-.03-.06-.12-.05,0-.13l1.82-.91Z"/>
</svg>